<svg width="126" height="196" viewBox="0 0 126 196" fill="none" xmlns="http://www.w3.org/2000/svg">
    <path fill-rule="evenodd" clip-rule="evenodd"
          d="M49.875 81.4795C61.5359 86.0864 69.822 97.4093 69.822 110.694C69.8216 123.976 61.5352 135.37 49.875 139.92V81.4795Z"
          fill="black" fill-opacity="0.08"/>
    <path fill-rule="evenodd" clip-rule="evenodd"
          d="M53.3631 46.6865C54.6136 46.6872 55.5999 47.6693 55.6009 48.9185C55.6002 50.1681 54.614 51.1534 53.3631 51.1544C52.1124 51.1537 51.1296 50.1684 51.1289 48.9185C51.13 47.6689 52.1124 46.6872 53.3631 46.6865Z"
          fill="black" fill-opacity="0.26"/>
    <path fill-rule="evenodd" clip-rule="evenodd"
          d="M48.7145 36.5938C52.7372 36.5942 56.4049 38.2028 59.0875 40.8821C61.7693 43.5623 63.3799 47.2297 63.3802 51.2495C63.3795 55.2693 61.7693 58.9337 59.0875 61.6139C56.4049 64.2942 52.7379 65.9019 48.7145 65.9023C44.6911 65.9023 41.0243 64.2938 38.3416 61.6139C35.6594 58.9337 34.0495 55.2697 34.0488 51.2495C34.0492 47.2291 35.659 43.5623 38.3416 40.8821C41.0243 38.2025 44.6911 36.5938 48.7145 36.5938ZM48.7145 41.0617C45.9431 41.0617 43.3497 42.2237 41.561 44.0101C39.6836 45.8856 38.6097 48.3891 38.609 51.1583C38.6095 53.9273 39.7731 56.5227 41.561 58.3098C43.4388 60.1844 45.9436 61.2579 48.7145 61.2579C51.4853 61.2572 54.0798 60.0954 55.8679 58.3098C57.7451 56.4335 58.8195 53.927 58.8202 51.1583C58.8191 48.3898 57.655 45.7964 55.8679 44.0101C53.9904 42.1348 51.4853 41.0624 48.7145 41.0617Z"
          fill="black" fill-opacity="0.26"/>
    <path fill-rule="evenodd" clip-rule="evenodd"
          d="M18.9345 8.9848C19.7386 9.16335 20.363 9.7907 20.5426 10.5047C20.5426 10.5047 24.1451 23.804 44.2271 27.1759C45.0846 27.0875 45.9568 27.0436 46.8372 27.0436C53.7223 27.0441 59.8944 29.8164 64.4551 34.2833C67.4635 37.29 69.7006 41.1097 70.8432 45.3806C70.8033 45.2305 70.7707 45.0749 70.7281 44.9258C77.857 47.061 82.668 48.6837 91.0203 51.5143C97.4589 53.7481 106.046 56.6086 120.084 61.2544C121.156 61.6126 121.781 62.7775 121.425 63.9381C121.156 64.8295 120.263 65.4541 119.37 65.3663L66.4152 67.2357C65.8044 68.0218 65.1526 68.7805 64.4551 69.4916C62.268 71.6764 59.6503 73.452 56.7428 74.6992C62.9288 76.7367 68.4408 80.2736 72.8611 84.8669C79.479 91.8368 83.5014 101.222 83.5014 111.587C83.5011 121.952 79.3889 131.334 72.8611 138.303C66.9363 144.544 58.9293 148.837 49.874 150.055V175.999H44.42V76.6092C42.5293 76.4282 40.7062 76.0332 38.9661 75.4558V181.081H76.7948V186.275H33.6002V72.9351C32.0189 71.9481 30.5492 70.7941 29.2195 69.4916C24.6593 65.0244 21.9753 58.767 21.9746 51.8874C21.9748 48.8219 22.5256 45.8954 23.5319 43.1923C19.4508 38.8666 12.7808 28.6925 16.4293 10.5929C16.6096 9.43301 17.7729 8.71708 18.9345 8.9848ZM49.9655 142.415C57.5668 141.522 64.364 137.947 69.2825 132.764C74.6483 127.044 77.9562 119.359 77.9562 110.959C77.9558 102.56 74.6485 94.7845 69.2825 89.1552V88.9788C64.2745 83.7066 57.4774 80.1312 49.9655 79.3269V142.415ZM46.8372 32.4073C41.4727 32.4075 36.5542 34.6402 32.9773 38.1238C29.4003 41.6978 27.253 46.6149 27.2525 51.9756C27.253 57.3365 29.49 62.2536 32.9773 65.8275C36.5542 69.4003 41.4729 71.5441 46.8372 71.5441C52.2021 71.5438 57.1238 69.312 60.7008 65.8275C64.2769 62.2539 66.4249 57.3361 66.4253 51.9756C66.4249 46.6156 64.1871 41.6978 60.7008 38.1238C57.1238 34.5505 52.2019 32.4077 46.8372 32.4073ZM71.6998 51.8874C71.6994 55.4698 70.9392 58.8577 69.5872 61.9263L106.939 61.7022C102.29 60.1837 98.8006 58.9317 95.9395 58.0382C88.5874 55.4928 82.1217 53.827 71.6762 50.9852C71.6867 51.2833 71.6998 51.5869 71.6998 51.8874ZM20.8811 20.9911C20.243 30.6444 24.4262 35.7235 26.4569 37.6217C27.2831 36.4343 28.2063 35.3159 29.2195 34.2833C30.9372 32.5672 32.9202 31.1023 35.1 29.9476C27.5146 28.0148 23.2509 24.1254 20.8811 20.9911Z"
          fill="black" fill-opacity="0.26"/>
    <path fill-rule="evenodd" clip-rule="evenodd"
          d="M20.8781 20.9902C23.2516 24.1294 27.5239 28.027 35.1308 29.9569C31.6785 31.8089 28.7165 34.4561 26.481 37.6513C24.4616 35.7753 20.2365 30.6918 20.8781 20.9902Z"
          fill="black" fill-opacity="0.08"/>
</svg>
